<?xml version="1.0" encoding="UTF-8" standalone="no"?>
<svg
   xmlns:dc="http://purl.org/dc/elements/1.1/"
   xmlns:cc="http://creativecommons.org/ns#"
   xmlns:rdf="http://www.w3.org/1999/02/22-rdf-syntax-ns#"
   xmlns:svg="http://www.w3.org/2000/svg"
   xmlns="http://www.w3.org/2000/svg"
   id="svg8"
   version="1.1"
   viewBox="0 0 110 50"
   height="50mm"
   width="110mm">
  <defs
     id="defs2" />
  <metadata
     id="metadata5">
    <rdf:RDF>
      <cc:Work
         rdf:about="">
        <dc:format>image/svg+xml</dc:format>
        <dc:type
           rdf:resource="http://purl.org/dc/dcmitype/StillImage" />
        <dc:title></dc:title>
      </cc:Work>
    </rdf:RDF>
  </metadata>
  <g
     id="layer1">
    <g
       transform="translate(-50,-215.47924)"
       id="g1087">
      <g
         style="font-style:normal;font-variant:normal;font-weight:normal;font-stretch:normal;font-size:26.9129px;line-height:1.25;font-family:Consolas;-inkscape-font-specification:'Consolas, Normal';font-variant-ligatures:normal;font-variant-caps:normal;font-variant-numeric:normal;font-variant-east-asian:normal;letter-spacing:0.161396px;fill:#ffc286;fill-opacity:1;stroke:#ffc286;stroke-width:1.86966;stroke-miterlimit:4;stroke-dasharray:none;stroke-opacity:1"
         id="text885-0-1"
         aria-label="JDS"
         transform="translate(7.672326)">
        <path
           id="path1057"
           style="font-style:normal;font-variant:normal;font-weight:normal;font-stretch:normal;font-size:26.9129px;font-family:Consolas;-inkscape-font-specification:'Consolas, Normal';font-variant-ligatures:normal;font-variant-caps:normal;font-variant-numeric:normal;font-variant-east-asian:normal;letter-spacing:0.529167px;fill:#ffc286;fill-opacity:1;stroke:#ffc286;stroke-width:1.86966;stroke-miterlimit:4;stroke-dasharray:none;stroke-opacity:1"
           d="M 78.022486,231.34192 V 243.274 q 0,1.10385 -0.328526,2.10257 -0.328527,0.98558 -0.998721,1.72148 -0.670195,0.7359 -1.682057,1.16956 -1.011862,0.43365 -2.378532,0.43365 -0.512502,0 -1.051286,-0.0788 -0.525642,-0.0657 -1.025003,-0.18398 -0.486219,-0.13141 -0.919874,-0.30224 -0.433655,-0.18398 -0.749041,-0.39423 v -2.35226 q 0.814746,0.59135 1.800326,0.93302 0.998721,0.34167 1.97116,0.34167 1.432376,0 2.207699,-0.86731 0.775322,-0.88045 0.775322,-2.52309 v -9.90836 h -6.531109 v -2.02372 z" />
        <path
           id="path1059"
           style="font-style:normal;font-variant:normal;font-weight:normal;font-stretch:normal;font-size:26.9129px;font-family:Consolas;-inkscape-font-specification:'Consolas, Normal';font-variant-ligatures:normal;font-variant-caps:normal;font-variant-numeric:normal;font-variant-east-asian:normal;letter-spacing:0.529167px;fill:#ffc286;fill-opacity:1;stroke:#ffc286;stroke-width:1.86966;stroke-miterlimit:4;stroke-dasharray:none;stroke-opacity:1"
           d="m 95.687602,239.73906 q 0,1.23526 -0.197116,2.36539 -0.183975,1.13013 -0.604489,2.10257 -0.420514,0.97244 -1.090709,1.77404 -0.670194,0.78847 -1.642633,1.35353 -0.972438,0.56507 -2.260263,0.88045 -1.287824,0.30225 -2.930457,0.30225 h -3.679498 v -17.17537 h 4.428538 q 4.021166,0 5.992326,2.07628 1.984301,2.06315 1.984301,6.32086 z m -2.457379,0.17083 q 0,-1.82661 -0.341668,-3.08815 -0.341668,-1.26154 -1.038144,-2.03686 -0.696477,-0.77533 -1.747762,-1.117 -1.051285,-0.3548 -2.47052,-0.3548 h -2.010583 v 13.18048 h 1.747762 q 5.860915,0 5.860915,-6.58367 z" />
        <path
           id="path1061"
           style="font-style:normal;font-variant:normal;font-weight:normal;font-stretch:normal;font-size:26.9129px;font-family:Consolas;-inkscape-font-specification:'Consolas, Normal';font-variant-ligatures:normal;font-variant-caps:normal;font-variant-numeric:normal;font-variant-east-asian:normal;letter-spacing:0.529167px;fill:#ffc286;fill-opacity:1;stroke:#ffc286;stroke-width:1.86966;stroke-miterlimit:4;stroke-dasharray:none;stroke-opacity:1"
           d="m 110.30399,243.86535 q 0,1.22212 -0.49936,2.14199 -0.49936,0.91988 -1.39295,1.53751 -0.8936,0.60449 -2.15514,0.90673 -1.2484,0.30225 -2.75962,0.30225 -0.68334,0 -1.36667,-0.0526 -0.6702,-0.0526 -1.30097,-0.13141 -0.61763,-0.0788 -1.169552,-0.18397 -0.551925,-0.10513 -0.998721,-0.2234 v -2.26026 q 0.98558,0.36795 2.207703,0.5782 1.23526,0.21026 2.79904,0.21026 1.13013,0 1.9186,-0.17083 0.8016,-0.18398 1.30096,-0.52565 0.51251,-0.35481 0.7359,-0.85417 0.23654,-0.49936 0.23654,-1.14327 0,-0.69647 -0.39423,-1.18269 -0.38109,-0.49936 -1.01186,-0.88046 -0.63077,-0.39423 -1.44552,-0.70961 -0.8016,-0.32853 -1.64263,-0.6702 -0.84103,-0.34166 -1.65578,-0.7359 -0.8016,-0.40737 -1.43237,-0.94615 -0.630773,-0.55193 -1.025005,-1.28783 -0.381091,-0.7359 -0.381091,-1.74776 0,-0.88045 0.36795,-1.73462 0.36795,-0.85417 1.143276,-1.51122 0.77532,-0.6702 1.9843,-1.07757 1.22212,-0.40737 2.90417,-0.40737 0.43366,0 0.93302,0.0394 0.5125,0.0394 1.025,0.11827 0.52564,0.0657 1.025,0.15769 0.51251,0.092 0.94616,0.19712 v 2.10257 q -1.01186,-0.2891 -2.02372,-0.43366 -1.01187,-0.15769 -1.95802,-0.15769 -2.01058,0 -2.95674,0.6702 -0.94616,0.67019 -0.94616,1.80032 0,0.69648 0.38109,1.19584 0.39423,0.49936 1.02501,0.89359 0.63077,0.39423 1.43237,0.72276 0.81475,0.31538 1.65578,0.65705 0.84102,0.34167 1.64263,0.74904 0.81475,0.40738 1.44552,0.97244 0.63077,0.55193 1.01186,1.30097 0.39423,0.74904 0.39423,1.77404 z" />
      </g>
      <g
         style="font-style:normal;font-variant:normal;font-weight:normal;font-stretch:normal;font-size:29.4902px;line-height:1.25;font-family:Consolas;-inkscape-font-specification:'Consolas, Normal';font-variant-ligatures:normal;font-variant-caps:normal;font-variant-numeric:normal;font-variant-east-asian:normal;letter-spacing:0.154824px;fill:#b4c6a6;fill-opacity:1;stroke:#b4c6a6;stroke-width:4.01201;stroke-miterlimit:4;stroke-dasharray:none;stroke-opacity:1"
         id="text885-5-3-2"
         aria-label="&lt;   /&gt;"
         transform="translate(7.672326)">
        <path
           id="path1064"
           style="font-style:normal;font-variant:normal;font-weight:normal;font-stretch:normal;font-size:29.4902px;font-family:Consolas;-inkscape-font-specification:'Consolas, Normal';font-variant-ligatures:normal;font-variant-caps:normal;font-variant-numeric:normal;font-variant-east-asian:normal;fill:#b4c6a6;fill-opacity:1;stroke:#b4c6a6;stroke-width:4.01201;stroke-miterlimit:4;stroke-dasharray:none;stroke-opacity:1"
           d="m 61.445818,247.20139 -1.569547,1.58395 -9.676472,-8.07813 9.676472,-8.07812 1.569547,1.59834 -7.847734,6.45098 z" />
        <path
           id="path1066"
           style="font-style:normal;font-variant:normal;font-weight:normal;font-stretch:normal;font-size:29.4902px;font-family:Consolas;-inkscape-font-specification:'Consolas, Normal';font-variant-ligatures:normal;font-variant-caps:normal;font-variant-numeric:normal;font-variant-east-asian:normal;fill:#b4c6a6;fill-opacity:1;stroke:#b4c6a6;stroke-width:3.854;stroke-miterlimit:4;stroke-dasharray:none;stroke-opacity:1"
           d="m 124.47172,231.26438 -7.76584,18.42972 h -1.8792 l 7.76584,-18.42972 z" />
        <path
           id="path1068"
           style="font-style:normal;font-variant:normal;font-weight:normal;font-stretch:normal;font-size:29.4902px;font-family:Consolas;-inkscape-font-specification:'Consolas, Normal';font-variant-ligatures:normal;font-variant-caps:normal;font-variant-numeric:normal;font-variant-east-asian:normal;fill:#b4c6a6;fill-opacity:1;stroke:#b4c6a6;stroke-width:4.01201;stroke-miterlimit:4;stroke-dasharray:none;stroke-opacity:1"
           d="m 133.22393,234.22743 1.55515,-1.59834 9.67647,8.07812 -9.67647,8.07813 -1.55515,-1.58395 7.84773,-6.46538 z" />
      </g>
    </g>
  </g>
</svg>
