<?xml version="1.0" encoding="utf-8"?>
<!-- Generator: Adobe Illustrator 19.2.1, SVG Export Plug-In . SVG Version: 6.00 Build 0)  -->
<svg version="1.1" id="layer" xmlns="http://www.w3.org/2000/svg" xmlns:xlink="http://www.w3.org/1999/xlink" x="0px" y="0px"
	 viewBox="0 0 652 652" style="enable-background:new 0 0 652 652;" xml:space="preserve">
<style type="text/css">
	.st0{fill:#70B853;}
</style>
<path class="st0" d="M29.5,385.1h66.7v-21.4H44.6V257.6H21.9v106.1v9.8L29.5,385.1z M179.4,344.2c0,8.4-3,22.6-23,22.9h-7
	c-8.5,0-22.7-3-22.9-22.9v-45.9c0-8.5,3-22.7,22.9-22.9h7.1c8.5,0,22.7,3,22.9,22.9V344.2z M193.9,367.9c5.5-9.6,6.1-19.8,6.1-23.7
	v-46c-0.2-21.5-10.9-32.1-19.8-37.3c-9.6-5.5-19.8-6.1-23.7-6.1h-7.2c-21.5,0.2-32.1,10.9-37.3,19.8c-5.5,9.6-6.1,19.7-6.1,23.7v46
	c0.2,21.5,10.9,32.1,19.8,37.3c9.6,5.5,19.8,6.1,23.7,6.1h7.1h0.1C178.1,387.5,188.7,376.8,193.9,367.9 M270.3,321.5l-41.4-63.8
	h-25.4l41.4,63.8l-41.4,63.8h25.4L270.3,321.5z M276,312.7l35.7-55h-25.4l-23,35.5L276,312.7z M286.3,385.3h25.4l-35.7-55
	l-12.7,19.6L286.3,385.3z M388.6,344.2c0,8.4-3,22.6-23,22.9h-7c-8.5,0-22.7-3-22.9-22.9v-45.9c0-8.5,3-22.7,22.9-22.9h7.1
	c8.5,0,22.7,3,22.9,22.9V344.2z M403.1,367.9c5.5-9.6,6.1-19.8,6.1-23.7v-46c-0.2-21.5-10.9-32.1-19.8-37.3
	c-9.6-5.5-19.8-6.1-23.7-6.1h-7.2c-21.5,0.2-32.1,10.9-37.3,19.8c-5.5,9.6-6.1,19.7-6.1,23.7v46c0.2,21.5,10.9,32.1,19.8,37.3
	c9.6,5.5,19.8,6.1,23.7,6.1h7.1h0.1C387.3,387.5,397.9,376.8,403.1,367.9 M522.6,385.1h2.6V257.6h-20.8v91.8l-46.8-91.8h-6.8H435
	h-4.9v127.4h20.8v-96.2l49,96.2h4.5H522.6z M570.4,363.7v-35.2h33.1v-21.4h-33.1v-16.6l-7.5-11.5h15.9h43.1v-21.4h-74.2v0.1V279
	v84.8v9.6l7.6,11.8h66.6v-21.4H570.4z"/>
</svg>
